<?xml version="1.0" encoding="UTF-8" standalone="no"?>
<svg xmlns:rdf="http://www.w3.org/1999/02/22-rdf-syntax-ns#" xmlns="http://www.w3.org/2000/svg" height="3.2in" width="5in" version="1.1" xmlns:cc="http://creativecommons.org/ns#" xmlns:dc="http://purl.org/dc/elements/1.1/" viewBox="0 0 450.00273 287.99776">
<g transform="translate(97.476 126)">
<g transform="matrix(1.8425 0 0 1.8425 -107 -15)">
<circle stroke-width="0" cy="17.998" cx="83.355" r="78.155" fill="#94e4fc"/>
<path stroke-linejoin="round" d="m54.003 76.255c-1.878-2.595-5.026-21.295-9.303-54.135-3.415-26.216-5.729-39.678-7.551-43.915l-0.962-2.235-3.161 3.863c-2.725 3.33-3.87 4.152-8.303 5.961-2.827 1.154-5.283 1.964-5.456 1.8-0.562-0.533 6.858-8.357 10.756-11.341 2.086-1.598 6.413-4.3 9.614-6.006 5.558-2.96 5.879-3.05 7.105-1.997 1.956 1.68 3.115 7.739 6.4 33.479 3.976 31.15 4.675 35.808 7.232 48.192 1.863 9.016 2.29 10.329 3.042 9.353 1.671-2.169 11.992-25.939 24.844-57.218 2.516-6.1228 5.512-12.274 6.691-13.74 2.249-2.795 9.899-7.226 13.669-7.917 1.35-0.246 5.3 0.424 11.15 1.89 13.06 3.269 18.51 4.358 51.64 10.325 49.26 8.8706 76.32 13.95 76.89 14.436 0.72 0.6002-7.53 6.413-9.09 6.413-0.66 0-3.75-0.565-6.87-1.255-18.72-4.1404-60.35-11.855-84.92-15.736-12.27-1.9382-28.17-4.8121-36.99-6.687-3.43-0.73-6.5-1.327-6.83-1.327-0.66 0-1.85 2.649-17.663 39.435-6.216 14.459-12.94 29.93-14.942 34.381l-3.64 8.091-6.136 3.29c-6.688 3.586-6.752 3.609-7.409 2.6z" stroke="#000" stroke-linecap="round" stroke-width="1.6282" fill="#ff0"/>
</g>
</g>
</svg>
